<svg width="54" height="56" viewBox="0 0 54 56" fill="none" xmlns="http://www.w3.org/2000/svg">
<path d="M48.9624 0H4.89624C2.19107 0 0 2.24451 0 5.01566V50.1566C0 52.9277 2.19107 55.1722 4.89624 55.1722H48.9624C51.6675 55.1722 53.8586 52.9277 53.8586 50.1566V5.01566C53.8586 2.24451 51.6651 0 48.9624 0ZM45.7529 23.7592C45.4346 23.7893 45.1139 23.8093 44.7908 23.8093C41.1308 23.8093 37.914 21.8833 36.0412 18.9667C36.0412 26.6131 36.0412 35.3152 36.0412 35.4607C36.0412 42.1942 30.7117 47.6513 24.1409 47.6513C17.5701 47.6487 12.2406 42.1892 12.2406 35.4582C12.2406 28.7247 17.5701 23.2676 24.1409 23.2676C24.3906 23.2676 24.633 23.2902 24.8753 23.3053V29.314C24.6305 29.2839 24.3931 29.2388 24.1409 29.2388C20.787 29.2388 18.0671 32.025 18.0671 35.4607C18.0671 38.8964 20.7845 41.6826 24.1409 41.6826C27.4973 41.6826 30.4595 38.9742 30.4595 35.5384C30.4595 35.4005 30.5182 7.52599 30.5182 7.52599H36.122C36.6483 12.6595 40.6951 16.7122 45.7529 17.0833V23.7592Z" fill="#243F88"/>
</svg>
