<svg width="58" height="58" viewBox="0 0 58 58" fill="none" xmlns="http://www.w3.org/2000/svg">
<path d="M6.88089 0C3.08264 0 0 3.08264 0 6.88089V50.9186C0 54.7168 3.08264 57.7995 6.88089 57.7995H50.9186C54.7168 57.7995 57.7995 54.7168 57.7995 50.9186V6.88089C57.7995 3.08264 54.7168 0 50.9186 0H6.88089ZM15.138 5.50471H18.4413L20.6427 11.0094L22.844 5.50471H26.1474L22.0189 15.138V20.6427H19.2665V15.1245C18.4408 12.9089 15.7022 6.89465 15.138 5.50471ZM28.8997 9.63325C30.1245 9.63325 31.3357 10.0037 32.1063 10.9395C32.6981 11.6139 33.0283 12.7015 33.0283 14.1327V16.1432C33.0283 17.5744 32.7542 18.5653 32.1762 19.2396C31.4056 20.1617 30.1245 20.6427 28.8997 20.6427C27.6749 20.6427 26.4235 20.1617 25.6528 19.2396C25.0611 18.5653 24.7712 17.5744 24.7712 16.1432V14.1461C24.7712 12.7149 25.0876 11.6139 25.6931 10.9395C26.4638 10.0037 27.5098 9.63325 28.8997 9.63325ZM34.4045 9.63325H37.1568V17.8903C37.2256 18.2619 37.6239 18.4279 37.9954 18.4279C38.5597 18.4279 39.2761 17.7676 39.9092 17.0383V9.63325H42.6615V20.6427H39.9092V18.7424C38.7945 19.8295 37.8447 20.6436 36.5924 20.6024C35.6841 20.5748 35.0516 20.2442 34.7351 19.5837C34.5424 19.1983 34.4045 18.5782 34.4045 17.6699V9.63325ZM28.8997 11.8615C28.7105 11.8615 28.5294 11.903 28.3649 11.9744C28.2004 12.0458 28.0515 12.1481 27.9267 12.2754C27.802 12.4027 27.701 12.5539 27.6311 12.7216C27.5612 12.8893 27.5236 13.0746 27.5236 13.2672V17.1323C27.5236 17.5177 27.6773 17.8696 27.9267 18.1242C28.0515 18.2515 28.2004 18.3538 28.3649 18.4252C28.5294 18.4966 28.7105 18.5381 28.8997 18.5381C29.089 18.5381 29.2701 18.4966 29.4346 18.4252C29.9281 18.211 30.2759 17.7103 30.2759 17.1323V13.2672C30.2759 12.4966 29.6566 11.8615 28.8997 11.8615ZM28.8863 24.7712H28.9132C28.9132 24.7712 38.1466 24.7716 44.3119 25.212C45.1789 25.3083 47.0517 25.3222 48.7307 27.0424C50.0518 28.336 50.4778 31.3081 50.4778 31.3081C50.4778 31.3081 50.9186 33.4144 50.9186 36.8961V40.1565C50.9186 43.6382 50.4778 45.7445 50.4778 45.7445C50.4778 45.7445 50.0518 48.7165 48.7307 50.0101C47.0517 51.7303 45.1789 51.7442 44.3119 51.8405C38.1466 52.2809 28.8997 52.2948 28.8997 52.2948C28.8997 52.2948 17.4488 52.1842 13.9257 51.854C12.9487 51.6751 10.7477 51.73 9.0688 50.0235C7.74767 48.7162 7.3217 45.7445 7.3217 45.7445C7.3217 45.7445 6.88089 43.6382 6.88089 40.1565V36.8961C6.88089 33.4144 7.3217 31.3081 7.3217 31.3081C7.3217 31.3081 7.74767 28.336 9.0688 27.0424C10.7477 25.3222 12.6206 25.3083 13.4876 25.212C19.6529 24.7716 28.8863 24.7712 28.8863 24.7712ZM11.0094 30.2759V32.9987H13.7618V46.7901H16.5141V32.9987H19.2665V30.2759H11.0094ZM28.8997 30.2759V46.7901H31.6521V45.0698C32.5205 46.1446 33.6517 46.7901 34.5765 46.7901C35.6114 46.7901 36.5144 46.2331 36.8611 45.1666C37.0249 44.59 37.1458 44.0515 37.1568 42.8335V39.0491C37.1568 37.6894 36.9727 36.665 36.7993 36.087C36.4525 35.0123 35.6127 34.4113 34.5765 34.4045C33.2278 34.3948 32.6842 35.0925 31.6521 36.2967V30.2759H28.8997ZM19.2665 34.4045V43.605C19.2665 44.5986 19.4048 45.2652 19.5837 45.7015C19.8864 46.4088 20.5038 46.7901 21.3845 46.7901C22.3891 46.7901 23.684 46.0824 24.7712 44.9113V46.7901H27.5236V34.4045H24.7712V43.0324C24.1657 43.8361 23.2843 44.4355 22.7338 44.4355C22.376 44.4355 22.0877 44.2848 22.0189 43.8899V34.4045H19.2665ZM42.7018 34.4045C41.3147 34.4045 40.2313 34.8407 39.4469 35.6651C38.8689 36.2733 38.533 37.2677 38.533 38.5572V42.7771C38.533 44.0583 38.9025 44.9549 39.4791 45.5563C40.2649 46.3807 41.3461 46.7901 42.7664 46.7901C44.1852 46.7901 45.3022 46.359 46.0536 45.4838C46.3839 45.0971 46.5957 44.6619 46.6879 44.1775C46.7127 43.9587 46.7901 43.3648 46.7901 42.6615H44.0377V43.7609C44.0377 44.3994 43.4212 44.9166 42.6615 44.9166C41.9019 44.9166 41.2853 44.398 41.2853 43.7609V41.2853H46.7901V40.4924V38.5034C46.7901 37.2167 46.4741 36.2747 45.9058 35.6651C45.1447 34.8407 44.0643 34.4045 42.7018 34.4045ZM42.6615 36.3962C43.4212 36.3962 44.0377 36.9148 44.0377 37.5519V39.3797H41.2853V37.5519C41.2853 36.9134 41.9019 36.3962 42.6615 36.3962ZM33.332 36.8074C34.082 36.8074 34.4045 37.2683 34.4045 38.705V42.4895C34.4045 43.9262 34.082 44.4221 33.332 44.4221C32.904 44.4221 32.087 44.1285 31.6521 43.6937V37.6729C32.087 37.2435 32.904 36.8074 33.332 36.8074Z" fill="#243F88"/>
</svg>
